<svg class="main-svg" xmlns="http://www.w3.org/2000/svg" xmlns:xlink="http://www.w3.org/1999/xlink" width="800" height="600" style="" viewBox="0 0 800 600"><rect x="0" y="0" width="800" height="600" style="fill: rgb(255, 255, 255); fill-opacity: 1;"/><defs id="defs-e610e3"><g class="clips"><clipPath id="clipe610e3xyplot" class="plotclip"><rect width="640" height="420"/></clipPath><clipPath class="axesclip" id="clipe610e3x"><rect x="80" y="0" width="640" height="600"/></clipPath><clipPath class="axesclip" id="clipe610e3y"><rect x="0" y="100" width="800" height="420"/></clipPath><clipPath class="axesclip" id="clipe610e3xy"><rect x="80" y="100" width="640" height="420"/></clipPath></g><g class="gradients"/><g class="patterns"/></defs><g class="bglayer"/><g class="layer-below"><g class="imagelayer"/><g class="shapelayer"/></g><g class="cartesianlayer"><g class="subplot xy"><g class="layer-subplot"><g class="shapelayer"/><g class="imagelayer"/></g><g class="minor-gridlayer"><g class="x"/><g class="y"/></g><g class="gridlayer"><g class="x"><path class="xgrid crisp" transform="translate(125.84,0)" d="M0,100v420" style="stroke: rgb(235, 240, 248); stroke-opacity: 1; stroke-width: 1px;"/><path class="xgrid crisp" transform="translate(213.99,0)" d="M0,100v420" style="stroke: rgb(235, 240, 248); stroke-opacity: 1; stroke-width: 1px;"/><path class="xgrid crisp" transform="translate(302.15,0)" d="M0,100v420" style="stroke: rgb(235, 240, 248); stroke-opacity: 1; stroke-width: 1px;"/><path class="xgrid crisp" transform="translate(390.3,0)" d="M0,100v420" style="stroke: rgb(235, 240, 248); stroke-opacity: 1; stroke-width: 1px;"/><path class="xgrid crisp" transform="translate(478.46,0)" d="M0,100v420" style="stroke: rgb(235, 240, 248); stroke-opacity: 1; stroke-width: 1px;"/><path class="xgrid crisp" transform="translate(566.61,0)" d="M0,100v420" style="stroke: rgb(235, 240, 248); stroke-opacity: 1; stroke-width: 1px;"/><path class="xgrid crisp" transform="translate(654.77,0)" d="M0,100v420" style="stroke: rgb(235, 240, 248); stroke-opacity: 1; stroke-width: 1px;"/></g><g class="y"><path class="ygrid crisp" transform="translate(0,452.76)" d="M80,0h640" style="stroke: rgb(235, 240, 248); stroke-opacity: 1; stroke-width: 1px;"/><path class="ygrid crisp" transform="translate(0,406.52)" d="M80,0h640" style="stroke: rgb(235, 240, 248); stroke-opacity: 1; stroke-width: 1px;"/><path class="ygrid crisp" transform="translate(0,360.28)" d="M80,0h640" style="stroke: rgb(235, 240, 248); stroke-opacity: 1; stroke-width: 1px;"/><path class="ygrid crisp" transform="translate(0,314.03)" d="M80,0h640" style="stroke: rgb(235, 240, 248); stroke-opacity: 1; stroke-width: 1px;"/><path class="ygrid crisp" transform="translate(0,267.78999999999996)" d="M80,0h640" style="stroke: rgb(235, 240, 248); stroke-opacity: 1; stroke-width: 1px;"/><path class="ygrid crisp" transform="translate(0,221.55)" d="M80,0h640" style="stroke: rgb(235, 240, 248); stroke-opacity: 1; stroke-width: 1px;"/><path class="ygrid crisp" transform="translate(0,175.31)" d="M80,0h640" style="stroke: rgb(235, 240, 248); stroke-opacity: 1; stroke-width: 1px;"/><path class="ygrid crisp" transform="translate(0,129.07)" d="M80,0h640" style="stroke: rgb(235, 240, 248); stroke-opacity: 1; stroke-width: 1px;"/></g></g><g class="zerolinelayer"><path class="yzl zl crisp" transform="translate(0,499)" d="M80,0h640" style="stroke: rgb(235, 240, 248); stroke-opacity: 1; stroke-width: 2px;"/></g><g class="layer-between"><g class="shapelayer"/><g class="imagelayer"/></g><path class="xlines-below"/><path class="ylines-below"/><g class="overlines-below"/><g class="xaxislayer-below"/><g class="yaxislayer-below"/><g class="overaxes-below"/><g class="overplot"><g class="xy" transform="translate(80,100)" clip-path="url(#clipe610e3xyplot)"><g class="scatterlayer mlayer"><g class="trace scatter trace48dd16" style="stroke-miterlimit: 2; opacity: 1;"><g class="fills"/><g class="errorbars"/><g class="lines"><path class="js-line" d="M0,399L31.74,398.59L33.5,262.14L35.26,324.74L37.02,323.36L38.79,344.18L40.55,248.48L42.31,233.23L44.08,300.2L45.84,296.71L47.6,300.53L49.37,258.88L51.13,323.27L52.89,307.86L54.66,308.7L56.42,258.1L58.18,264.06L61.71,352.42L63.47,253.64L65.23,295.38L67,227.41L68.76,172.08L70.52,276.44L72.29,120.72L74.05,190.97L77.58,113.58L79.34,295.34L81.1,227.49L82.87,223.18L84.63,257.35L86.39,201.26L88.15,186.31L89.92,300.53L93.44,63.86L95.21,277.83L98.73,199.84L100.5,130.73L104.02,311.55L105.79,214.38L107.55,21L109.31,227.31L111.07,264.47L112.84,187.24L114.6,68.97L116.36,128.62L119.89,392.24L121.65,392.9L126.94,392.74L128.71,391.67L130.47,393.55L132.23,392.07L133.99,393.09L135.76,392.77L137.52,392.35L139.28,392.82L149.86,393.22L151.63,392.19L155.15,391.11L156.91,392.47L158.68,392.89L160.44,392.16L162.2,391.44L163.97,393.78L165.73,393.22L167.49,393.71L169.26,392.15L171.02,393.03L174.55,392.74L176.31,391.27L178.07,392.99L179.83,391.65L183.36,392.42L185.12,393.03L188.65,393.72L190.41,371.47L192.18,342.24L193.94,270.67L197.47,260.47L199.23,296.3L200.99,315.01L202.75,250.85L204.52,257.12L206.28,290.28L208.04,246.44L209.81,263.03L211.57,299.9L213.33,248.07L215.1,303.23L216.86,290L218.62,257.64L220.39,281.76L222.15,276.51L223.91,204.8L225.67,325.51L227.44,247.39L229.2,309.4L230.96,280.26L232.73,301.72L234.49,313.11L238.02,318.36L239.78,346.7L241.54,290.39L243.31,343.09L245.07,317.35L246.83,355.56L248.6,337.07L250.36,336.56L252.12,322.25L253.88,319.88L255.65,332.28L257.41,304.95L259.17,265.95L260.94,344.72L262.7,328.36L264.46,328.5L266.23,292.69L267.99,356.7L269.75,331.67L271.52,285.46L273.28,343.96L275.04,264.63L276.8,344.11L278.57,277.91L280.33,330.63L282.09,305.58L283.86,338.91L285.62,291.42L287.38,299.13L289.15,300.67L290.91,312.76L292.67,312.93L294.44,316.63L296.2,313.77L297.96,339.58L299.72,330.79L301.49,356.19L303.25,323.6L305.01,347.61L306.78,332.53L308.54,317.13L310.3,242.93L312.07,225.91L313.83,273.9L315.59,284.58L317.36,236.94L319.12,257.28L320.88,293.87L322.64,338.94L324.41,294.92L326.17,339.84L327.93,342.96L329.7,139.64L331.46,289.45L333.22,295.93L334.99,294.34L336.75,253.97L338.51,179.95L340.28,257.06L342.04,260.16L343.8,211.91L345.56,234.86L347.33,331.6L349.09,316.87L350.85,295.33L352.62,228.95L354.38,280.93L356.14,260.79L357.91,183.43L359.67,236.79L361.43,160.5L363.2,313.15L364.96,279.08L366.72,329.44L368.48,319.23L370.25,323.14L372.01,199.16L373.77,180.57L375.54,223.69L377.3,184.6L379.06,266.23L380.83,216.58L382.59,224.94L384.35,290.64L386.12,262.42L387.88,189.39L389.64,300.71L391.4,345.24L393.17,234.41L394.93,330.71L396.69,250.33L398.46,342.08L400.22,307.67L401.98,295.01L403.75,289.38L405.51,353.86L407.27,334.59L409.04,298.57L410.8,310.13L412.56,311.82L414.33,355.76L416.09,311.41L417.85,348.93L419.61,292.85L421.38,294.69L423.14,342.29L424.9,313.93L426.67,320.26L428.43,323.92L430.19,312.85L431.96,320.92L433.72,313.52L437.25,248.92L439.01,308.24L440.77,271.9L442.53,354.94L444.3,311.14L446.06,339.27L447.82,315.41L449.59,327.07L451.35,307.64L453.11,319.5L454.88,312.56L456.64,299.44L458.4,351.77L460.17,291L461.93,315.48L463.69,329.4L465.45,272.64L467.22,246.88L468.98,278.71L470.74,291.08L472.51,348.99L474.27,290.53L476.03,238.58L477.8,312.36L479.56,261.7L481.32,255.77L483.09,296.47L484.85,262.31L486.61,316.68L488.37,254.38L490.14,291.47L491.9,299.01L493.66,290.6L495.43,218.67L497.19,236.91L498.95,238.91L500.72,232.86L502.48,260.47L504.24,292.34L506.01,249.19L507.77,306.73L509.53,294.12L511.29,288.12L513.06,268.92L514.82,298.35L516.58,267.81L518.35,241.91L520.11,241.98L521.87,293.45L523.64,307.5L527.16,231.03L528.93,260.71L532.45,337.16L534.21,289.55L535.98,214.08L537.74,274.48L539.5,344.96L541.27,210.9L543.03,308.8L544.79,272L546.56,295.97L548.32,216.26L550.08,289.03L551.85,236.15L553.61,321.76L555.37,281.3L557.13,241.19L558.9,240.59L560.66,303.73L562.42,276.57L564.19,316.42L565.95,242.38L571.24,329.6L573,329.6L638.24,329.6" style="vector-effect: none; fill: none; stroke: rgb(99, 110, 250); stroke-opacity: 1; stroke-width: 2px; opacity: 1;"/></g><g class="points"/><g class="text"/></g></g></g></g><path class="xlines-above crisp" d="M79,520.5H720" style="fill: none; stroke-width: 1px; stroke: rgb(0, 0, 0); stroke-opacity: 1;"/><path class="ylines-above crisp" d="M79.5,100V520" style="fill: none; stroke-width: 1px; stroke: rgb(0, 0, 0); stroke-opacity: 1;"/><g class="overlines-above"/><g class="xaxislayer-above"><path class="xtick ticks crisp" d="M0,520v-5" transform="translate(125.84,0)" style="stroke: rgb(68, 68, 68); stroke-opacity: 1; stroke-width: 1px;"/><path class="xtick ticks crisp" d="M0,520v-5" transform="translate(213.99,0)" style="stroke: rgb(68, 68, 68); stroke-opacity: 1; stroke-width: 1px;"/><path class="xtick ticks crisp" d="M0,520v-5" transform="translate(302.15,0)" style="stroke: rgb(68, 68, 68); stroke-opacity: 1; stroke-width: 1px;"/><path class="xtick ticks crisp" d="M0,520v-5" transform="translate(390.3,0)" style="stroke: rgb(68, 68, 68); stroke-opacity: 1; stroke-width: 1px;"/><path class="xtick ticks crisp" d="M0,520v-5" transform="translate(478.46,0)" style="stroke: rgb(68, 68, 68); stroke-opacity: 1; stroke-width: 1px;"/><path class="xtick ticks crisp" d="M0,520v-5" transform="translate(566.61,0)" style="stroke: rgb(68, 68, 68); stroke-opacity: 1; stroke-width: 1px;"/><path class="xtick ticks crisp" d="M0,520v-5" transform="translate(654.77,0)" style="stroke: rgb(68, 68, 68); stroke-opacity: 1; stroke-width: 1px;"/><g class="xtick"><text text-anchor="middle" x="0" y="535.4" transform="translate(125.84,0)" style="font-family: 'Open Sans', verdana, arial, sans-serif; font-size: 12px; fill: rgb(42, 63, 95); fill-opacity: 1; white-space: pre; opacity: 1;">50</text></g><g class="xtick"><text text-anchor="middle" x="0" y="535.4" style="font-family: 'Open Sans', verdana, arial, sans-serif; font-size: 12px; fill: rgb(42, 63, 95); fill-opacity: 1; white-space: pre; opacity: 1;" transform="translate(213.99,0)">100</text></g><g class="xtick"><text text-anchor="middle" x="0" y="535.4" style="font-family: 'Open Sans', verdana, arial, sans-serif; font-size: 12px; fill: rgb(42, 63, 95); fill-opacity: 1; white-space: pre; opacity: 1;" transform="translate(302.15,0)">150</text></g><g class="xtick"><text text-anchor="middle" x="0" y="535.4" style="font-family: 'Open Sans', verdana, arial, sans-serif; font-size: 12px; fill: rgb(42, 63, 95); fill-opacity: 1; white-space: pre; opacity: 1;" transform="translate(390.3,0)">200</text></g><g class="xtick"><text text-anchor="middle" x="0" y="535.4" style="font-family: 'Open Sans', verdana, arial, sans-serif; font-size: 12px; fill: rgb(42, 63, 95); fill-opacity: 1; white-space: pre; opacity: 1;" transform="translate(478.46,0)">250</text></g><g class="xtick"><text text-anchor="middle" x="0" y="535.4" style="font-family: 'Open Sans', verdana, arial, sans-serif; font-size: 12px; fill: rgb(42, 63, 95); fill-opacity: 1; white-space: pre; opacity: 1;" transform="translate(566.61,0)">300</text></g><g class="xtick"><text text-anchor="middle" x="0" y="535.4" style="font-family: 'Open Sans', verdana, arial, sans-serif; font-size: 12px; fill: rgb(42, 63, 95); fill-opacity: 1; white-space: pre; opacity: 1;" transform="translate(654.77,0)">350</text></g></g><g class="yaxislayer-above"><path class="ytick ticks crisp" d="M80,0h5" transform="translate(0,499)" style="stroke: rgb(68, 68, 68); stroke-opacity: 1; stroke-width: 1px;"/><path class="ytick ticks crisp" d="M80,0h5" transform="translate(0,452.76)" style="stroke: rgb(68, 68, 68); stroke-opacity: 1; stroke-width: 1px;"/><path class="ytick ticks crisp" d="M80,0h5" transform="translate(0,406.52)" style="stroke: rgb(68, 68, 68); stroke-opacity: 1; stroke-width: 1px;"/><path class="ytick ticks crisp" d="M80,0h5" transform="translate(0,360.28)" style="stroke: rgb(68, 68, 68); stroke-opacity: 1; stroke-width: 1px;"/><path class="ytick ticks crisp" d="M80,0h5" transform="translate(0,314.03)" style="stroke: rgb(68, 68, 68); stroke-opacity: 1; stroke-width: 1px;"/><path class="ytick ticks crisp" d="M80,0h5" transform="translate(0,267.78999999999996)" style="stroke: rgb(68, 68, 68); stroke-opacity: 1; stroke-width: 1px;"/><path class="ytick ticks crisp" d="M80,0h5" transform="translate(0,221.55)" style="stroke: rgb(68, 68, 68); stroke-opacity: 1; stroke-width: 1px;"/><path class="ytick ticks crisp" d="M80,0h5" transform="translate(0,175.31)" style="stroke: rgb(68, 68, 68); stroke-opacity: 1; stroke-width: 1px;"/><path class="ytick ticks crisp" d="M80,0h5" transform="translate(0,129.07)" style="stroke: rgb(68, 68, 68); stroke-opacity: 1; stroke-width: 1px;"/><g class="ytick"><text text-anchor="end" x="76.6" y="4.199999999999999" transform="translate(0,499)" style="font-family: 'Open Sans', verdana, arial, sans-serif; font-size: 12px; fill: rgb(42, 63, 95); fill-opacity: 1; white-space: pre; opacity: 1;">0</text></g><g class="ytick"><text text-anchor="end" x="76.6" y="4.199999999999999" style="font-family: 'Open Sans', verdana, arial, sans-serif; font-size: 12px; fill: rgb(42, 63, 95); fill-opacity: 1; white-space: pre; opacity: 1;" transform="translate(0,452.76)">50</text></g><g class="ytick"><text text-anchor="end" x="76.6" y="4.199999999999999" style="font-family: 'Open Sans', verdana, arial, sans-serif; font-size: 12px; fill: rgb(42, 63, 95); fill-opacity: 1; white-space: pre; opacity: 1;" transform="translate(0,406.52)">100</text></g><g class="ytick"><text text-anchor="end" x="76.6" y="4.199999999999999" style="font-family: 'Open Sans', verdana, arial, sans-serif; font-size: 12px; fill: rgb(42, 63, 95); fill-opacity: 1; white-space: pre; opacity: 1;" transform="translate(0,360.28)">150</text></g><g class="ytick"><text text-anchor="end" x="76.6" y="4.199999999999999" style="font-family: 'Open Sans', verdana, arial, sans-serif; font-size: 12px; fill: rgb(42, 63, 95); fill-opacity: 1; white-space: pre; opacity: 1;" transform="translate(0,314.03)">200</text></g><g class="ytick"><text text-anchor="end" x="76.6" y="4.199999999999999" style="font-family: 'Open Sans', verdana, arial, sans-serif; font-size: 12px; fill: rgb(42, 63, 95); fill-opacity: 1; white-space: pre; opacity: 1;" transform="translate(0,267.78999999999996)">250</text></g><g class="ytick"><text text-anchor="end" x="76.6" y="4.199999999999999" style="font-family: 'Open Sans', verdana, arial, sans-serif; font-size: 12px; fill: rgb(42, 63, 95); fill-opacity: 1; white-space: pre; opacity: 1;" transform="translate(0,221.55)">300</text></g><g class="ytick"><text text-anchor="end" x="76.6" y="4.199999999999999" style="font-family: 'Open Sans', verdana, arial, sans-serif; font-size: 12px; fill: rgb(42, 63, 95); fill-opacity: 1; white-space: pre; opacity: 1;" transform="translate(0,175.31)">350</text></g><g class="ytick"><text text-anchor="end" x="76.6" y="4.199999999999999" style="font-family: 'Open Sans', verdana, arial, sans-serif; font-size: 12px; fill: rgb(42, 63, 95); fill-opacity: 1; white-space: pre; opacity: 1;" transform="translate(0,129.07)">400</text></g></g><g class="overaxes-above"/></g></g><g class="polarlayer"/><g class="smithlayer"/><g class="ternarylayer"/><g class="geolayer"/><g class="funnelarealayer"/><g class="pielayer"/><g class="iciclelayer"/><g class="treemaplayer"/><g class="sunburstlayer"/><g class="glimages"/><defs id="topdefs-e610e3"><g class="clips"/></defs><g class="layer-above"><g class="imagelayer"/><g class="shapelayer"/></g><g class="infolayer"><g class="g-gtitle"><text class="gtitle" x="40" y="50" text-anchor="start" dy="0em" style="opacity: 1; font-family: 'Open Sans', verdana, arial, sans-serif; font-size: 17px; fill: rgb(42, 63, 95); fill-opacity: 1; white-space: pre;">Confinement Level vs Frame 40 &amp; 4</text></g><g class="g-xtitle"><text class="xtitle" x="400" y="562.3660810470581" text-anchor="middle" style="opacity: 1; font-family: 'Open Sans', verdana, arial, sans-serif; font-size: 14px; fill: rgb(42, 63, 95); fill-opacity: 1; white-space: pre;">Frame</text></g><g class="g-ytitle"><text class="ytitle" transform="rotate(-90,34.3041015625,310)" x="34.3041015625" y="310" text-anchor="middle" style="opacity: 1; font-family: 'Open Sans', verdana, arial, sans-serif; font-size: 14px; fill: rgb(42, 63, 95); fill-opacity: 1; white-space: pre;">Confinement Level</text></g></g></svg>