<svg class="main-svg" xmlns="http://www.w3.org/2000/svg" xmlns:xlink="http://www.w3.org/1999/xlink" width="600" height="600" style="" viewBox="0 0 600 600"><rect x="0" y="0" width="600" height="600" style="fill: rgb(0, 0, 0); fill-opacity: 0;"/><defs id="defs-2cf7ea"><g class="clips"><clipPath id="clip2cf7eaxyplot" class="plotclip"><rect width="600" height="600"/></clipPath><clipPath class="axesclip" id="clip2cf7eax"><rect x="0" y="0" width="600" height="600"/></clipPath><clipPath class="axesclip" id="clip2cf7eay"><rect x="0" y="0" width="600" height="600"/></clipPath><clipPath class="axesclip" id="clip2cf7eaxy"><rect x="0" y="0" width="600" height="600"/></clipPath></g><g class="gradients"/><g class="patterns"/></defs><g class="bglayer"><rect class="bg" x="0" y="0" width="600" height="600" style="fill: rgb(52, 52, 52); fill-opacity: 1; stroke-width: 0;"/></g><g class="layer-below"><g class="imagelayer"/><g class="shapelayer"/></g><g class="cartesianlayer"><g class="subplot xy"><g class="layer-subplot"><g class="shapelayer"/><g class="imagelayer"/></g><g class="minor-gridlayer"><g class="x"/><g class="y"/></g><g class="gridlayer"><g class="x"/><g class="y"/></g><g class="zerolinelayer"/><g class="layer-between"><g class="shapelayer"/><g class="imagelayer"/></g><path class="xlines-below"/><path class="ylines-below"/><g class="overlines-below"/><g class="xaxislayer-below"/><g class="yaxislayer-below"/><g class="overaxes-below"/><g class="overplot"><g class="xy" transform="" clip-path="url(#clip2cf7eaxyplot)"><g class="scatterlayer mlayer"><g class="trace scatter tracee4afd9" style="stroke-miterlimit: 2; opacity: 1;"><g class="fills"/><g class="errorbars"/><g class="lines"><path class="js-line" d="M163.12,427.57L182.54,431.67L305.03,314.74L274.74,379.81L307.97,391.12L340.08,437.71L271.32,432.8L250.92,377.25L248.73,322.96L232.79,332.7L252.18,402.28L221.53,361.09L214.21,160.05L157.62,180.61L131.59,137.23L184.96,103.12L193.61,116.05L253.97,135.31L346.69,180.85L342.93,180.85L345.54,174.22L346.86,169.41L347.29,177.7L349.06,176.52L345.7,182.81L345.78,176.95L344.32,180.54L347.16,180.18L346.48,172.96L345.86,175.63L348.03,172.9L349.4,175.02L346.42,178.38L344.43,176.87L352.06,185.37L345.33,180.48L344.7,182.51L346.5,173.23L345.15,178.27L345.77,181.42L344.51,177.35L344.05,178.5L346.91,177.48L344.48,177.24L347.22,182.07L345.1,179.6L346.58,179.19L343.72,180.4L345.18,178.9L345.73,178.5L344.68,182.85L345.89,175.99L348.73,180.01L342.9,175.14L345.99,178.76L346.64,176.73L344.49,173.9L345.1,169.37L342.77,178.31L344.96,176.84L347.61,178.01L345,172.14L346.87,177.84L344.64,176.61L345.12,183.2L347.11,179.1L345.27,178.79L346.54,178.6L344.75,174.93L347.96,177.46L343.7,180.39L345.7,171.54L345.25,180.66L346.25,176.99L344.56,175.01L344.55,174.73L345.84,180.11L346.2,180.23L344.59,178.83L345.51,180.91L344.03,177.67L347.73,180.71L348.33,180.91L348.13,173.72L347.41,181.97L345.75,180.32L347.28,172.8L342.9,180.28L342.77,171.5L344.13,183.6L346.74,177.01L343.64,173.42L346.11,180.18L347.7,173.23L344.49,176.77L348.6,179.51L347,174.45L345.49,174.58L343.9,174.65L342.68,178.23L375.16,157.1L357.57,170.88L343.56,170.35L344.87,181.34L344.94,176.13L344.44,176.79L342.78,179.13L347.29,185.22L346.96,175.68L345.25,181.05L347.72,173.71L345.93,181.22L347.61,180.82L344,178.6L346.23,177.07L344,177.96L344.53,178.12L345.38,178.84L344.27,181.07L348.31,180.47L346.23,179.82L343.03,176.74L345.48,179.48L346.31,175.39L346.17,182.98L344.26,179.22L345.64,177.35L350.9,178.95L342.75,174.93L347.67,178.85L347.25,173.81L344.14,177.95L348.94,171.54L345.24,175.12L350.29,175.37L350.82,177.38L346.12,176.83L348.05,186.54L343.71,179.38L346.06,180.34L342.96,175.14L349.78,176.2L346.02,175.95L345.03,179.37L342.55,172.82L346.15,182.23L342.26,175.85L345.93,180.7L351.75,183.24L347.31,179.54L341.91,178.95L348.67,185.02L343.13,176L346.54,183.03L344.5,181.03L348.9,183.02L347.11,177.3L347.32,177.27L343.92,181.99L350.11,188.11L346.95,186.98L347.54,191.7L346.17,185.56L345.42,188.57L343.2,183.17L343.95,182.11L345.1,175.87L345.85,178.66L345.38,180.44L344.65,179.97L347.38,178.77L344.3,176.33L346.59,183.25L340.93,179.29L345.9,173.18L344.11,185.79L350.49,171.84L344.78,180.44L342.58,177.37L348.55,175.3L348.7,175.7L348.18,177.75L346.7,178.14L344.02,176.83L343.16,178.57L343.91,179.61L346.49,181.1L344.18,186L343.56,183.81L346.07,172.52L344.27,177.85L345.5,173.52L347.79,181.48L346.76,179.84L344.75,180.02L346.58,178.47L342.01,181.58L349.09,180.09L342.75,184.52L349.2,184.26L342.7,173.65L345.9,179.78L345.62,177.82L344.61,178.48L347.07,179.97L345.65,181.91L345.42,179.92L348.62,179.81L347.47,183.78L346.74,179.97L345.36,183.74L348,173.98L344.64,179.71L348.35,178.78L344.69,180.5L349.26,178.3L347.41,180.82L344.64,175.64L346.55,180.58L346.66,171.62L342.48,177.96L344.73,179.53L344.51,183.95L347.32,179.55L348.02,170.95L344.5,178.66L347.92,172.82L344.85,179.83L342.75,182.36L350.11,183.17L344.43,178.48L346.02,176.79L347.08,176.63L347.47,179.9L347.22,177.52L345.69,177.61L344.39,181.01L345.43,181.67L345.62,178.1L344.39,181.62L346.37,171.46L347.77,181.82L347.58,174.61L345.02,177.87L346.67,175.81L344.26,179.22L347.65,179.11L344.56,178.5L345.42,178.92L339.29,185.46L350.11,178.58L346.2,177.17L345.8,175.91L348.6,182.16L345.74,181.5L348.44,182.95L347,178.65L348.67,191.25L345.62,176.02L347.94,181.37L344.86,175.09L344.17,182.99L345.67,178.38L343.35,184.73L347.74,175.26L345.36,173.87L347.15,176.21L346.39,174.91L344.46,177.32L343.92,179.77L348.46,177.8L347.93,181.41L346.06,178.86L349.24,179.29L350.3,177.87L345.27,179.73L346.7,184.34L344.17,178.6L345.45,176.48L344.99,178.97L343.58,179.82L347.99,180.28L346.68,180.92L346.79,177.22L345.45,176.03L348.47,183.17L344.89,179.97L346.64,177.91L344.45,181.53L344.45,184.92L342.77,174.96L348.19,182.05L346.34,180.23L348.26,179.82L351.03,185.38L346.68,178.52L347.55,174.23L348.01,180.85L345.57,173.7L346.23,180.36L348.33,176.87L346.12,177.04L342.34,178.27L344.86,178.47L344.49,181.67L345.31,180.03L348.08,175.29L345.32,178.25L345.02,175.5L345.32,181.56L348.3,179.65L344.83,177.27L344.2,174.73L344.21,171.01L346.22,174.84L344.36,180.15L347.42,181.77L344.69,174.4L346.92,178.51L346.1,182.67L341.08,177.1L344.28,178.16L347.74,178.03L348.89,175.29L345.14,179.12L342.97,186.19L345.29,176.76L345.78,178.64L342.89,183.67L342.04,180.11L344.91,183.41L346.1,182.35L345.64,185.87L343.11,182.63L350.08,179.52L344.12,180.36L349.56,175.52L349.02,178.94L346.01,173.57L346.47,175.44L347.14,184.03L349.26,188.51L347.23,176.62L347.42,175.02L349.01,174.25L344.36,174.16L347.49,180.58L343.75,181.18L345.63,180.13L344.58,180.26L345.99,175.05L347.34,178.86" style="vector-effect: none; fill: none; stroke: rgb(99, 110, 250); stroke-opacity: 1; stroke-width: 2px; opacity: 1;"/></g><g class="points"/><g class="text"/></g></g></g></g><path class="xlines-above crisp" d="M0,0" style="fill: none;"/><path class="ylines-above crisp" d="M0,0" style="fill: none;"/><g class="overlines-above"/><g class="xaxislayer-above"/><g class="yaxislayer-above"/><g class="overaxes-above"/></g></g><g class="polarlayer"/><g class="smithlayer"/><g class="ternarylayer"/><g class="geolayer"/><g class="funnelarealayer"/><g class="pielayer"/><g class="iciclelayer"/><g class="treemaplayer"/><g class="sunburstlayer"/><g class="glimages"/><defs id="topdefs-2cf7ea"><g class="clips"/></defs><g class="layer-above"><g class="imagelayer"/><g class="shapelayer"/></g><g class="infolayer"><g class="g-gtitle"/><g class="g-xtitle"/><g class="g-ytitle"/></g></svg>